<svg width="21" height="21" viewBox="0 0 21 21" fill="none" xmlns="http://www.w3.org/2000/svg">
<path d="M10.5 19.9062C5.31125 19.9062 1.09375 15.6888 1.09375 10.5C1.09375 5.31125 5.31125 1.09375 10.5 1.09375C15.6888 1.09375 19.9062 5.31125 19.9062 10.5C19.9062 15.6888 15.6888 19.9062 10.5 19.9062ZM10.5 2.40625C6.0375 2.40625 2.40625 6.0375 2.40625 10.5C2.40625 14.9625 6.0375 18.5938 10.5 18.5938C14.9625 18.5938 18.5938 14.9625 18.5938 10.5C18.5938 6.0375 14.9625 2.40625 10.5 2.40625Z" fill="white"/>
<path d="M8.02375 13.6325C7.8575 13.6325 7.69125 13.5712 7.56 13.44C7.30625 13.1863 7.30625 12.7663 7.56 12.5125L12.5125 7.56C12.7663 7.30625 13.1863 7.30625 13.44 7.56C13.6938 7.81375 13.6938 8.23375 13.44 8.4875L8.4875 13.44C8.365 13.5712 8.19 13.6325 8.02375 13.6325Z" fill="white"/>
<path d="M12.9763 13.6325C12.81 13.6325 12.6438 13.5712 12.5125 13.44L7.56 8.4875C7.30625 8.23375 7.30625 7.81375 7.56 7.56C7.81375 7.30625 8.23375 7.30625 8.4875 7.56L13.44 12.5125C13.6938 12.7663 13.6938 13.1862 13.44 13.44C13.3088 13.5712 13.1425 13.6325 12.9763 13.6325Z" fill="white"/>
</svg>
