<svg width="37" height="37" viewBox="0 0 37 37" fill="none" xmlns="http://www.w3.org/2000/svg">
<path d="M15.2386 22.7663C17.4533 22.5764 19.6801 22.5764 21.8948 22.7663C23.1059 22.8475 24.3088 23.0244 25.4923 23.2953C28.0524 23.8108 29.7232 24.8282 30.4238 26.3203C30.9836 27.56 30.9688 28.9858 30.3834 30.2134C29.6693 31.7056 27.9985 32.723 25.398 33.252C24.2185 33.5175 23.0201 33.6899 21.8139 33.7675C20.48 33.9167 19.3482 33.9167 18.2972 33.9167H17.8795C17.2841 33.8521 16.8328 33.3462 16.8328 32.7433C16.8328 32.1404 17.2841 31.6345 17.8795 31.5699L18.8014 31.5697C19.7255 31.5589 20.6552 31.5157 21.5849 31.4343C22.6817 31.3625 23.7716 31.2083 24.8456 30.9731C26.6915 30.5661 27.8503 29.9828 28.2141 29.2096C28.4971 28.6182 28.4971 27.9292 28.2141 27.3377C27.8503 26.5509 26.6915 25.9405 24.886 25.5742C23.7954 25.3279 22.687 25.1691 21.5714 25.0995C19.4872 24.9095 17.3902 24.9095 15.306 25.0995C14.2047 25.1713 13.1103 25.3254 12.0318 25.5607C10.1858 25.9676 9.04055 26.5509 8.66327 27.3241C8.5296 27.6178 8.46066 27.9371 8.46116 28.2601C8.46041 28.5875 8.52932 28.9113 8.66327 29.2096C9.30458 30.0914 10.2803 30.6661 11.3581 30.7967L11.5144 30.8392C11.869 30.9623 12.1473 31.251 12.2558 31.6194C12.3797 32.0404 12.2612 32.4958 11.9482 32.8016C11.6352 33.1074 11.1795 33.213 10.7652 33.0757C9.0281 32.7905 7.50453 31.7481 6.60175 30.227C6.02163 28.995 6.02163 27.5659 6.60175 26.3339C7.31587 24.801 8.98665 23.8108 11.5602 23.2818C12.7719 23.0179 14.0014 22.8456 15.2386 22.7663ZM15.3623 3.71112C18.4302 2.43327 21.9606 3.14254 24.3064 5.50799C26.6521 7.87345 27.3508 11.4289 26.0765 14.5154C24.8022 17.6019 21.806 19.6112 18.4858 19.6057C13.9592 19.5982 10.2936 15.9018 10.2936 11.3446L10.3012 10.9878C10.4379 7.7891 12.4039 4.94334 15.3623 3.71112ZM18.4858 5.44386C16.929 5.44027 15.4347 6.06036 14.3326 7.16736C13.2305 8.27436 12.6111 9.77729 12.6111 11.3446C12.6057 13.738 14.0336 15.8987 16.2283 16.8184C18.4231 17.7381 20.9521 17.2354 22.6351 15.545C24.318 13.8546 24.8231 11.3097 23.9146 9.09802C23.0061 6.88633 20.8632 5.44386 18.4858 5.44386Z" fill="url(#paint0_linear_17_167)"/>
<defs>
<linearGradient id="paint0_linear_17_167" x1="18.5" y1="3.08334" x2="18.5" y2="33.9167" gradientUnits="userSpaceOnUse">
<stop stop-color="#1BB2EE"/>
<stop offset="1" stop-color="#0E7C68"/>
</linearGradient>
</defs>
</svg>
