<svg width="54" height="52" viewBox="0 0 54 52" fill="none" xmlns="http://www.w3.org/2000/svg">
<path d="M41.814 50H24.6977C19.1748 50 14.6977 45.5228 14.6977 40V12C14.6977 6.47713 19.1748 1.99998 24.6977 1.99998H35.753L51.814 18.061V40C51.814 45.5228 47.3368 50 41.814 50Z" fill="#EEF1F7" stroke="#CBD0DC" stroke-width="4"/>
<rect y="22.9768" width="36.2791" height="21.1628" rx="7" fill="#D82042"/>
<path d="M6.01276 38.6976V28.5834H9.6179C10.4048 28.5834 11.0567 28.7266 11.5736 29.0131C12.0905 29.2995 12.4773 29.6913 12.7341 30.1885C12.9909 30.6823 13.1193 31.2387 13.1193 31.8577C13.1193 32.48 12.9893 33.0397 12.7292 33.5368C12.4724 34.0307 12.0839 34.4225 11.5637 34.7122C11.0468 34.9986 10.3966 35.1418 9.61297 35.1418H7.13381V33.8479H9.47469C9.97183 33.8479 10.3752 33.7623 10.6846 33.5911C10.9941 33.4166 11.2213 33.1796 11.3662 32.88C11.511 32.5804 11.5835 32.2396 11.5835 31.8577C11.5835 31.4758 11.511 31.1367 11.3662 30.8404C11.2213 30.544 10.9925 30.3119 10.6797 30.144C10.3702 29.9761 9.96196 29.8921 9.45493 29.8921H7.53877V38.6976H6.01276Z" fill="white"/>
<path d="M18.1826 38.6976H14.9083V28.5834H18.2863C19.2773 28.5834 20.1284 28.7859 20.8395 29.1909C21.5507 29.5925 22.0956 30.1704 22.4742 30.9243C22.8561 31.675 23.0471 32.5754 23.0471 33.6257C23.0471 34.6793 22.8545 35.5847 22.4693 36.3419C22.0874 37.0992 21.5342 37.6819 20.8099 38.0902C20.0856 38.4951 19.2098 38.6976 18.1826 38.6976ZM16.4344 37.3642H18.0986C18.8691 37.3642 19.5094 37.2193 20.0197 36.9296C20.5301 36.6366 20.912 36.2135 21.1655 35.6604C21.419 35.104 21.5458 34.4257 21.5458 33.6257C21.5458 32.8322 21.419 32.1589 21.1655 31.6058C20.9153 31.0527 20.5416 30.6329 20.0444 30.3465C19.5473 30.0601 18.93 29.9168 18.1925 29.9168H16.4344V37.3642Z" fill="white"/>
<path d="M24.9447 38.6976V28.5834H31.2167V29.8971H26.4707V32.9787H30.7673V34.2875H26.4707V38.6976H24.9447Z" fill="white"/>
</svg>
