<svg width="316" height="318" viewBox="0 0 316 318" fill="none" xmlns="http://www.w3.org/2000/svg">
<rect x="2" y="2" width="312" height="314" rx="24" fill="#1E1E1E"/>
<rect x="2" y="2" width="312" height="314" rx="24" stroke="url(#paint0_linear_49_389)" stroke-width="4" stroke-dasharray="12 12"/>
<path d="M34.5 159H116.833M158 35.5V104.111M281.5 159H199.167C179.763 159 170.062 159 164.038 165.038C158 171.048 158 180.75 158 200.167M158 238.177V276.16M199.167 200.167V220.75C199.167 240.592 209.925 241.333 226.611 241.333C230.25 241.333 233.741 242.779 236.314 245.352C238.888 247.926 240.333 251.416 240.333 255.056M212.889 282.5H199.167M240.333 200.167C259.737 200.167 269.438 200.167 275.462 206.204C281.486 212.242 281.5 221.958 281.5 241.388C281.5 260.819 281.5 270.548 275.462 276.586C271.071 280.977 264.718 282.184 254.056 282.5M34.5 76.6667C34.5 57.2634 34.5 47.5618 40.5378 41.5378C46.5481 35.5 56.2497 35.5 75.6667 35.5C95.0836 35.5 104.772 35.5 110.796 41.5378C116.833 47.5481 116.833 57.2497 116.833 76.6667C116.833 96.0836 116.833 105.772 110.796 111.796C104.785 117.833 95.0836 117.833 75.6667 117.833C56.2497 117.833 46.5618 117.833 40.5378 111.796C34.5 105.785 34.5 96.0836 34.5 76.6667ZM34.5 241.333C34.5 221.93 34.5 212.228 40.5378 206.204C46.5481 200.167 56.2497 200.167 75.6667 200.167C95.0836 200.167 104.772 200.167 110.796 206.204C116.833 212.215 116.833 221.916 116.833 241.333C116.833 260.75 116.833 270.438 110.796 276.462C104.785 282.5 95.0836 282.5 75.6667 282.5C56.2497 282.5 46.5618 282.5 40.5378 276.462C34.5 270.452 34.5 260.75 34.5 241.333ZM199.167 76.6667C199.167 57.2634 199.167 47.5618 205.204 41.5378C211.215 35.5 220.916 35.5 240.333 35.5C259.75 35.5 269.438 35.5 275.462 41.5378C281.5 47.5481 281.5 57.2497 281.5 76.6667C281.5 96.0836 281.5 105.772 275.462 111.796C269.452 117.833 259.75 117.833 240.333 117.833C220.916 117.833 211.228 117.833 205.204 111.796C199.167 105.785 199.167 96.0836 199.167 76.6667Z" stroke="url(#paint1_linear_49_389)" stroke-width="10" stroke-linecap="round" stroke-linejoin="round"/>
<defs>
<linearGradient id="paint0_linear_49_389" x1="158" y1="0" x2="158" y2="318" gradientUnits="userSpaceOnUse">
<stop stop-color="#1BAEEF"/>
<stop offset="1" stop-color="#18E8B6"/>
</linearGradient>
<linearGradient id="paint1_linear_49_389" x1="158" y1="35.5" x2="158" y2="282.5" gradientUnits="userSpaceOnUse">
<stop stop-color="#19E2BE"/>
<stop offset="1" stop-color="#1BB2EE"/>
</linearGradient>
</defs>
</svg>
